<svg xmlns="http://www.w3.org/2000/svg" xmlns:xlink="http://www.w3.org/1999/xlink">
  <symbol id="vk">
    <path fill-rule="evenodd" clip-rule="evenodd" d="M1.40589 1.40589C0 2.81177 0 5.0745 0 9.6V10.4C0 14.9255 0 17.1882 1.40589 18.5941C2.81177 20 5.0745 20 9.6 20H10.4C14.9255 20 17.1882 20 18.5941 18.5941C20 17.1882 20 14.9255 20 10.4V9.6C20 5.0745 20 2.81177 18.5941 1.40589C17.1882 0 14.9255 0 10.4 0H9.6C5.0745 0 2.81177 0 1.40589 1.40589ZM3.37505 6.08337C3.48338 11.2834 6.08337 14.4084 10.6417 14.4084H10.9001V11.4334C12.5751 11.6 13.8417 12.825 14.35 14.4084H16.7167C16.0667 12.0417 14.3583 10.7334 13.2916 10.2334C14.3583 9.61671 15.8583 8.11671 16.2166 6.08337H14.0666C13.5999 7.73337 12.2168 9.23337 10.9001 9.37504V6.08337H8.75V11.85C7.41667 11.5167 5.73338 9.90004 5.65837 6.08337H3.37505Z"/>
  </symbol>
  <symbol id="pinterest">
    <path d="M11 -3.24249e-05C4.92488 -3.24249e-05 0 4.92484 0 10.9999C0 15.6601 2.8994 19.6438 6.99129 21.2466C6.89517 20.3763 6.80825 19.0378 7.02943 18.0877C7.22934 17.2292 8.31931 12.62 8.31931 12.62C8.31931 12.62 7.99028 11.961 7.99028 10.9868C7.99028 9.4573 8.87682 8.3154 9.98068 8.3154C10.9192 8.3154 11.3724 9.01998 11.3724 9.86487C11.3724 10.8087 10.7716 12.2197 10.4615 13.5274C10.2023 14.6222 11.0105 15.5151 12.0904 15.5151C14.0454 15.5151 15.5483 13.4536 15.5483 10.4779C15.5483 7.84417 13.6558 6.00273 10.9535 6.00273C7.82365 6.00273 5.98653 8.35029 5.98653 10.7764C5.98653 11.7218 6.35073 12.7356 6.80518 13.2867C6.89508 13.3956 6.90824 13.491 6.88146 13.6022C6.79797 13.9496 6.6124 14.6968 6.57597 14.8497C6.528 15.0511 6.41655 15.0938 6.20808 14.9968C4.83426 14.3573 3.9753 12.3487 3.9753 10.7354C3.9753 7.26546 6.49644 4.07878 11.2434 4.07878C15.0593 4.07878 18.0247 6.79794 18.0247 10.4319C18.0247 14.2229 15.6344 17.2738 12.3167 17.2738C11.202 17.2738 10.1542 16.6948 9.79547 16.0107C9.79547 16.0107 9.2439 18.111 9.11018 18.6256C8.86186 19.5811 8.19145 20.7787 7.74303 21.5094C8.77223 21.828 9.86598 21.9999 11 21.9999C17.0751 21.9999 22 17.075 22 10.9999C22 4.92484 17.0751 -3.24249e-05 11 -3.24249e-05Z" />
  </symbol>
  <symbol id="ok">
    <path fill-rule="evenodd" clip-rule="evenodd" d="M1.4 1.4C3.33786e-06 2.812 3.35195e-06 5.074 3.35195e-06 9.6V10.4L1.66545e-06 10.5136C-9.77702e-05 14.97 -0.00014782 17.2117 1.4 18.6C2.812 20 5.074 20 9.6 20H10.4H10.5131C14.9698 20.0001 17.2117 20.0001 18.6 18.6C20 17.188 20 14.926 20 10.4V9.6V9.48685C20.0001 5.03015 20.0001 2.7883 18.6 1.4C17.188 3.33786e-06 14.926 3.35195e-06 10.4 3.35195e-06H9.6L9.48639 1.66545e-06C5.03 -9.77702e-05 2.78825 -0.00014782 1.4 1.4ZM10.0194 10.1972C11.6876 10.1972 13.0477 8.83717 13.0477 7.16889C13.0477 5.50061 11.6876 4.14061 10.0194 4.14061C8.33296 4.14061 6.97295 5.50061 6.97295 7.16889C6.97295 8.83717 8.33296 10.1972 10.0194 10.1972ZM10.0194 5.91768C10.7084 5.91768 11.2706 6.47982 11.2706 7.16889C11.2706 7.85796 10.7084 8.4201 10.0194 8.4201C9.3303 8.4201 8.76816 7.85796 8.76816 7.16889C8.75003 6.47982 9.31216 5.91768 10.0194 5.91768ZM11.2343 12.6815C11.8509 12.5364 12.4493 12.3007 12.9933 11.9561C13.4103 11.7023 13.5372 11.1401 13.2653 10.7231C13.0114 10.306 12.4493 10.1791 12.0322 10.4511C10.7991 11.2308 9.18524 11.2308 7.95216 10.4511C7.53509 10.1972 6.99109 10.306 6.71909 10.7231C6.48336 11.1401 6.61029 11.6841 7.02736 11.938C7.57137 12.2825 8.16977 12.5183 8.7863 12.6634L7.0999 14.3498C6.75536 14.6943 6.75536 15.2565 7.0999 15.601C7.28123 15.7823 7.49883 15.8548 7.73456 15.8548C7.9703 15.8548 8.1879 15.7641 8.36923 15.601L10.0375 13.9327L11.7058 15.601C12.0503 15.9455 12.6124 15.9455 12.957 15.601C13.3015 15.2565 13.3015 14.6943 12.957 14.3498L11.2343 12.6815Z"/>
  </symbol>
  <symbol id="html-icon">
    <path d="M11.2151 5.75392L5.97184 2.49957V2.49875L5.97121 2.49916L5.97058 2.49875V2.49957L0.784854 5.75013V1.40658L6.00008 0.830884L11.2151 1.40658V5.75392ZM11.211 6.32987L9.12557 7.62344L5.98451 5.65607L5.97935 6.22863L8.66414 7.9096L8.20107 8.19683L5.98451 6.80853L5.97935 7.3811L7.72892 8.47648L7.31607 8.76717L7.30606 8.77351L5.98451 7.95383L5.97935 8.52631L6.8465 9.06404L5.96315 9.62244L0.796198 6.3886L5.97058 3.1139V3.11448L11.211 6.32987ZM11.2151 11.7713L6 15.0384L0.784854 11.7713V7.02542L5.97763 10.2796L5.98631 10.8693L2.42396 8.63702L2.41871 9.20959L5.99523 11.4728L6.00407 12.0782L2.42873 9.83883L2.42356 10.4113L6 12.6745L9.60624 10.4026V7.95712L11.2151 6.94552V11.7713ZM5.99984 -3.17891e-07L0 0.662267V12.2411L6 16L12 12.2411V0.662267L5.99984 -3.17891e-07Z"/>
  </symbol>
  <symbol id="pagintaion-arrow">
    <path fill-rule="evenodd" clip-rule="evenodd" d="M4.80847 -5.20835e-08L6 1.23899L2.38306 5L6 8.76101L4.80847 10L-2.18557e-07 5L4.80847 -5.20835e-08Z" />
  </symbol>
  <symbol id="logotype-mobile">
    <path fill-rule="evenodd" clip-rule="evenodd" d="M32 18C32 20.8737 31.4014 23.5901 30.3369 26H17C19.4627 22.2281 22 17.6606 22 13C22 7.00236 17.9385 1.95335 12.4158 0.453392C13.5681 0.156712 14.7678 0 16 0C24.8366 0 32 8.05888 32 18ZM18 13C18 8.02944 13.9706 4 9 4C2.34935 4 0 12.5071 0 18C0 27.9411 7.16344 36 16 36C20.7387 36 24.9962 33.6825 27.9259 30H9C9.35183 29.5514 9.72025 29.0891 10.0987 28.6142C13.6157 24.2012 18 18.6997 18 13Z" fill="#7859CF"/>
  </symbol>
  <symbol id="logotype-tablet">
    <path d="M74.08 26.336C72.752 26.336 71.52 26.128 70.384 25.712C69.248 25.28 68.264 24.672 67.432 23.888C66.616 23.104 65.976 22.184 65.512 21.128C65.048 20.056 64.816 18.88 64.816 17.6C64.816 16.32 65.048 15.152 65.512 14.096C65.976 13.024 66.624 12.096 67.456 11.312C68.288 10.528 69.272 9.928 70.408 9.512C71.56 9.08 72.816 8.864 74.176 8.864C75.76 8.864 77.176 9.128 78.424 9.656C79.672 10.184 80.704 10.944 81.52 11.936L78.496 14.672C77.92 14.048 77.296 13.584 76.624 13.28C75.968 12.96 75.232 12.8 74.416 12.8C73.696 12.8 73.04 12.912 72.448 13.136C71.856 13.36 71.352 13.688 70.936 14.12C70.52 14.536 70.192 15.04 69.952 15.632C69.728 16.208 69.616 16.864 69.616 17.6C69.616 18.304 69.728 18.952 69.952 19.544C70.192 20.136 70.52 20.648 70.936 21.08C71.352 21.496 71.848 21.824 72.424 22.064C73.016 22.288 73.664 22.4 74.368 22.4C75.072 22.4 75.76 22.288 76.432 22.064C77.104 21.824 77.784 21.424 78.472 20.864L81.136 24.2C80.176 24.888 79.064 25.416 77.8 25.784C76.536 26.152 75.296 26.336 74.08 26.336ZM76.936 23.576V17.24H81.136V24.2L76.936 23.576Z" fill="#333333"/>
    <path fill-rule="evenodd" clip-rule="evenodd" d="M58 18C58 20.8737 57.4014 23.5901 56.3369 26H43C45.4627 22.2281 48 17.6606 48 13C48 7.00236 43.9385 1.95335 38.4158 0.453392C39.5681 0.156712 40.7678 0 42 0C50.8366 0 58 8.05888 58 18ZM44 13C44 8.02944 39.9706 4 35 4C28.3493 4 26 12.5071 26 18C26 27.9411 33.1634 36 42 36C46.7387 36 50.9962 33.6825 53.9259 30H35C35.3518 29.5514 35.7202 29.0891 36.0987 28.6142C39.6157 24.2012 44 18.6997 44 13Z" fill="#7859CF"/>
    <path d="M1.85188 26V9.2H9.79588C11.6519 9.2 13.2839 9.544 14.6919 10.232C16.0999 10.92 17.1959 11.888 17.9799 13.136C18.7799 14.384 19.1799 15.872 19.1799 17.6C19.1799 19.312 18.7799 20.8 17.9799 22.064C17.1959 23.312 16.0999 24.28 14.6919 24.968C13.2839 25.656 11.6519 26 9.79588 26H1.85188ZM6.60388 22.208H9.60388C10.5639 22.208 11.3959 22.032 12.0999 21.68C12.8199 21.312 13.3799 20.784 13.7799 20.096C14.1799 19.392 14.3799 18.56 14.3799 17.6C14.3799 16.624 14.1799 15.792 13.7799 15.104C13.3799 14.416 12.8199 13.896 12.0999 13.544C11.3959 13.176 10.5639 12.992 9.60388 12.992H6.60388V22.208Z" fill="#333333"/>
  </symbol>
  <symbol id="logotype-desktop">
    <path d="M138.08 26.336C136.752 26.336 135.52 26.128 134.384 25.712C133.248 25.28 132.264 24.672 131.432 23.888C130.616 23.104 129.976 22.184 129.512 21.128C129.048 20.056 128.816 18.88 128.816 17.6C128.816 16.32 129.048 15.152 129.512 14.096C129.976 13.024 130.624 12.096 131.456 11.312C132.288 10.528 133.272 9.928 134.408 9.512C135.56 9.08 136.816 8.864 138.176 8.864C139.76 8.864 141.176 9.128 142.424 9.656C143.672 10.184 144.704 10.944 145.52 11.936L142.496 14.672C141.92 14.048 141.296 13.584 140.624 13.28C139.968 12.96 139.232 12.8 138.416 12.8C137.696 12.8 137.04 12.912 136.448 13.136C135.856 13.36 135.352 13.688 134.936 14.12C134.52 14.536 134.192 15.04 133.952 15.632C133.728 16.208 133.616 16.864 133.616 17.6C133.616 18.304 133.728 18.952 133.952 19.544C134.192 20.136 134.52 20.648 134.936 21.08C135.352 21.496 135.848 21.824 136.424 22.064C137.016 22.288 137.664 22.4 138.368 22.4C139.072 22.4 139.76 22.288 140.432 22.064C141.104 21.824 141.784 21.424 142.472 20.864L145.136 24.2C144.176 24.888 143.064 25.416 141.8 25.784C140.536 26.152 139.296 26.336 138.08 26.336ZM140.936 23.576V17.24H145.136V24.2L140.936 23.576ZM157.101 26.336C155.757 26.336 154.517 26.12 153.381 25.688C152.245 25.256 151.253 24.648 150.405 23.864C149.573 23.064 148.925 22.136 148.461 21.08C147.997 20.024 147.765 18.864 147.765 17.6C147.765 16.336 147.997 15.176 148.461 14.12C148.925 13.064 149.573 12.144 150.405 11.36C151.253 10.56 152.245 9.944 153.381 9.512C154.517 9.08 155.757 8.864 157.101 8.864C158.461 8.864 159.701 9.08 160.821 9.512C161.957 9.944 162.941 10.56 163.773 11.36C164.605 12.144 165.253 13.064 165.717 14.12C166.197 15.176 166.437 16.336 166.437 17.6C166.437 18.864 166.197 20.032 165.717 21.104C165.253 22.16 164.605 23.08 163.773 23.864C162.941 24.648 161.957 25.256 160.821 25.688C159.701 26.12 158.461 26.336 157.101 26.336ZM157.101 22.4C157.741 22.4 158.333 22.288 158.877 22.064C159.437 21.84 159.917 21.52 160.317 21.104C160.733 20.672 161.053 20.16 161.277 19.568C161.517 18.976 161.637 18.32 161.637 17.6C161.637 16.864 161.517 16.208 161.277 15.632C161.053 15.04 160.733 14.536 160.317 14.12C159.917 13.688 159.437 13.36 158.877 13.136C158.333 12.912 157.741 12.8 157.101 12.8C156.461 12.8 155.861 12.912 155.301 13.136C154.757 13.36 154.277 13.688 153.861 14.12C153.461 14.536 153.141 15.04 152.901 15.632C152.677 16.208 152.565 16.864 152.565 17.6C152.565 18.32 152.677 18.976 152.901 19.568C153.141 20.16 153.461 20.672 153.861 21.104C154.277 21.52 154.757 21.84 155.301 22.064C155.861 22.288 156.461 22.4 157.101 22.4Z" fill="#333333"/>
    <path fill-rule="evenodd" clip-rule="evenodd" d="M122 18C122 20.8737 121.401 23.5901 120.337 26H107C109.463 22.2281 112 17.6606 112 13C112 7.00236 107.938 1.95335 102.416 0.453392C103.568 0.156712 104.768 0 106 0C114.837 0 122 8.05888 122 18ZM108 13C108 8.02944 103.971 4 99 4C92.3493 4 90 12.5071 90 18C90 27.9411 97.1634 36 106 36C110.739 36 114.996 33.6825 117.926 30H99C99.3518 29.5514 99.7202 29.0891 100.099 28.6142C103.616 24.2012 108 18.6997 108 13Z" fill="#7859CF"/>
    <path d="M0.650627 26V9.2H8.59463C10.4506 9.2 12.0826 9.544 13.4906 10.232C14.8986 10.92 15.9946 11.888 16.7786 13.136C17.5786 14.384 17.9786 15.872 17.9786 17.6C17.9786 19.312 17.5786 20.8 16.7786 22.064C15.9946 23.312 14.8986 24.28 13.4906 24.968C12.0826 25.656 10.4506 26 8.59463 26H0.650627ZM5.40263 22.208H8.40263C9.36263 22.208 10.1946 22.032 10.8986 21.68C11.6186 21.312 12.1786 20.784 12.5786 20.096C12.9786 19.392 13.1786 18.56 13.1786 17.6C13.1786 16.624 12.9786 15.792 12.5786 15.104C12.1786 14.416 11.6186 13.896 10.8986 13.544C10.1946 13.176 9.36263 12.992 8.40263 12.992H5.40263V22.208ZM20.9588 26V9.2H28.6388C30.1748 9.2 31.4948 9.448 32.5988 9.944C33.7188 10.44 34.5828 11.16 35.1908 12.104C35.7988 13.032 36.1028 14.136 36.1028 15.416C36.1028 16.68 35.7988 17.776 35.1908 18.704C34.5828 19.616 33.7188 20.32 32.5988 20.816C31.4948 21.296 30.1748 21.536 28.6388 21.536H23.5988L25.7108 19.544V26H20.9588ZM31.3508 26L27.1748 19.88H32.2388L36.4388 26H31.3508ZM25.7108 20.048L23.5988 17.864H28.3508C29.3428 17.864 30.0788 17.648 30.5588 17.216C31.0548 16.784 31.3028 16.184 31.3028 15.416C31.3028 14.632 31.0548 14.024 30.5588 13.592C30.0788 13.16 29.3428 12.944 28.3508 12.944H23.5988L25.7108 10.76V20.048ZM39.2044 26V9.2H43.9564V26H39.2044ZM47.8172 26V9.2H51.7292L60.9932 20.384H59.1452V9.2H63.8012V26H59.8892L50.6252 14.816H52.4732V26H47.8172ZM71.8811 22.28L71.6171 16.952L78.8411 9.2H84.0731L76.8731 17L74.2331 19.76L71.8811 22.28ZM67.6331 26V9.2H72.3371V26H67.6331ZM78.9131 26L73.4411 19.064L76.5371 15.752L84.4331 26H78.9131Z" fill="#333333"/>
  </symbol>
  <symbol id="login">
    <path fill-rule="evenodd" clip-rule="evenodd" d="M10.6667 4C10.6667 5.47276 9.47276 6.66667 8 6.66667C6.52724 6.66667 5.33333 5.47276 5.33333 4C5.33333 2.52724 6.52724 1.33333 8 1.33333C9.47276 1.33333 10.6667 2.52724 10.6667 4ZM12 4C12 6.20914 10.2091 8 8 8C5.79086 8 4 6.20914 4 4C4 1.79086 5.79086 0 8 0C10.2091 0 12 1.79086 12 4ZM3.19673 12.3102C4.43611 11.2774 6.1613 10.6667 8 10.6667C9.8387 10.6667 11.5639 11.2774 12.8033 12.3102C14.0354 13.337 14.6667 14.6719 14.6667 16H16C16 14.2321 15.1573 12.5363 13.6569 11.286C12.1566 10.0357 10.1218 9.33333 8 9.33333C5.87821 9.33333 3.8434 10.0357 2.34315 11.286C0.842686 12.5363 0 14.2321 0 16L1.33333 16C1.33333 14.6719 1.96465 13.337 3.19673 12.3102Z"/>
  </symbol>
  <symbol id="cart">
    <path fill-rule="evenodd" clip-rule="evenodd" d="M5.66091 3.87546L5.89351 6.66667H10.1065L10.3391 3.87546C10.4531 2.50699 9.37321 1.33333 8 1.33333C6.6268 1.33333 5.54687 2.50699 5.66091 3.87546ZM11.4444 6.66667L11.6678 3.98618C11.8466 1.84036 10.1533 0 8 0C5.84674 0 4.15336 1.84036 4.33218 3.98618L4.55556 6.66667H1.34687H0L0.190476 8L1.00626 13.7105C1.19393 15.0242 2.31905 16 3.64612 16H12.3539C13.6809 16 14.8061 15.0242 14.9937 13.7105L15.8095 8L16 6.66667H14.6531H11.4444ZM11.3333 8H11.2801L11.0579 10.6667H14.0817L14.4627 8H11.3333ZM9.94213 8H6.05787L6.28009 10.6667H9.71991L9.94213 8ZM4.71991 8H4.66667H1.53735L1.9183 10.6667H4.94213L4.71991 8ZM6.61342 14.6667L6.3912 12H9.6088L9.38658 14.6667H6.61342ZM10.9468 12L10.7245 14.6667H12.3539C13.0174 14.6667 13.58 14.1788 13.6738 13.5219L13.8912 12H10.9468ZM5.05324 12L5.27547 14.6667H3.64612C2.98259 14.6667 2.42003 14.1788 2.32619 13.5219L2.10877 12H5.05324Z"/>
  </symbol>
  <symbol id="nav-open-icon">
    <path fill-rule="evenodd" clip-rule="evenodd" d="M0 0H16V1.5H0V0ZM0 5.25H16V6.75H0V5.25ZM16 10.5H0V12H16V10.5Z" />
  </symbol>
  <symbol id="nav-close-icon">
    <path fill-rule="evenodd" clip-rule="evenodd" d="M5.02548 6L0 0.974524L0.974524 0L6 5.02548L11.0255 0L12 0.974524L6.97452 6L12 11.0255L11.0255 12L6 6.97452L0.974524 12L0 11.0255L5.02548 6Z"/>
  </symbol>
</svg>
